<svg width="32" height="32" viewBox="0 0 32 32" fill="none" xmlns="http://www.w3.org/2000/svg">
<path fill-rule="evenodd" clip-rule="evenodd" d="M7 6.11767L14.3542 0V10.8235C17.158 10.8235 19.8469 11.9391 21.8294 13.9247C23.812 15.9104 24.9258 18.6036 24.9258 21.4118C24.9258 24.2199 23.812 26.9131 21.8294 28.8988C19.8468 30.8845 17.1579 32 14.3541 32V25.545C15.4486 25.545 16.4982 25.1095 17.2721 24.3344C18.0461 23.5593 18.4808 22.508 18.4808 21.4118C18.4808 20.3156 18.0461 19.2643 17.2721 18.4891C16.4982 17.714 15.4486 17.2785 14.3541 17.2785L14.3541 10.8236H7V6.11767ZM7 17.4117H14.3542V25.4117H7V17.4117Z" fill="url(#paint0_linear_471_4219)"/>
<defs>
<linearGradient id="paint0_linear_471_4219" x1="15.9629" y1="-6.40001" x2="15.9629" y2="32" gradientUnits="userSpaceOnUse">
<stop stop-color="#FE5821"/>
<stop offset="1" stop-color="#FE9608"/>
</linearGradient>
</defs>
</svg>
