<svg width="187" height="51" viewBox="0 0 187 51" fill="none" xmlns="http://www.w3.org/2000/svg">
<path d="M39.9404 39.8298V22.703H48.6242C49.7253 22.703 50.6346 22.8607 51.352 23.176C52.0861 23.4913 52.6283 23.9726 52.9786 24.6198C53.3457 25.2505 53.5292 26.047 53.5292 27.0096C53.5292 27.8062 53.4208 28.4783 53.2039 29.026C52.987 29.5736 52.6533 30.0134 52.2029 30.3453C51.7691 30.6607 51.2102 30.893 50.5262 31.0424V31.1419C51.2602 31.2913 51.8525 31.5236 52.303 31.839C52.7701 32.1543 53.1121 32.5941 53.329 33.1583C53.5459 33.706 53.6543 34.4113 53.6543 35.2743C53.6543 35.9879 53.5626 36.6268 53.379 37.1911C53.2122 37.7553 52.9286 38.2366 52.5282 38.6349C52.1445 39.0166 51.6273 39.3153 50.9766 39.5311C50.3426 39.7302 49.5585 39.8298 48.6242 39.8298H39.9404ZM44.2698 36.5936H47.0977C47.6983 36.5936 48.1571 36.5438 48.4741 36.4443C48.7911 36.3281 49.0079 36.129 49.1247 35.8468C49.2415 35.5647 49.2999 35.1664 49.2999 34.6519C49.2999 34.1209 49.2415 33.7143 49.1247 33.4321C49.0079 33.15 48.7827 32.9592 48.4491 32.8596C48.1321 32.7434 47.6816 32.6853 47.0977 32.6853H44.2698V36.5936ZM44.2698 29.6732H47.0226C47.5898 29.6732 48.032 29.6234 48.3489 29.5239C48.6659 29.4077 48.8828 29.2168 48.9996 28.9513C49.1331 28.6858 49.1998 28.3124 49.1998 27.8311C49.1998 27.3166 49.1414 26.9266 49.0246 26.6611C48.9245 26.3956 48.716 26.213 48.399 26.1134C48.0987 26.0139 47.6399 25.9641 47.0226 25.9641H44.2698V29.6732Z" fill="#141416"/>
<path d="M61.9358 40.029C60.7345 40.029 59.7419 39.9543 58.9577 39.8049C58.1736 39.6555 57.548 39.4232 57.0808 39.1079C56.6304 38.776 56.2884 38.3528 56.0548 37.8383C55.8379 37.3238 55.6961 36.7098 55.6294 35.9962C55.5793 35.2826 55.5543 34.4528 55.5543 33.5068C55.5543 32.3617 55.6043 31.3743 55.7044 30.5445C55.8212 29.7147 56.0715 29.0343 56.4552 28.5032C56.8389 27.9722 57.4312 27.5822 58.232 27.3332C59.0495 27.0677 60.1506 26.9349 61.5354 26.9349C62.6532 26.9349 63.5624 27.0179 64.2631 27.1839C64.9638 27.3332 65.5144 27.5739 65.9148 27.9058C66.3319 28.2211 66.6238 28.636 66.7907 29.1505C66.9742 29.6649 67.091 30.2873 67.141 31.0175C67.1911 31.7311 67.2161 32.5609 67.2161 33.5068V34.4777H59.5333C59.5333 35.0419 59.5584 35.4983 59.6084 35.8468C59.6585 36.1787 59.7919 36.4277 60.0088 36.5936C60.2257 36.7596 60.5594 36.8758 61.0098 36.9421C61.4603 36.9919 62.0859 37.0168 62.8867 37.0168C63.2037 37.0168 63.5791 37.0085 64.0129 36.9919C64.4466 36.9753 64.8971 36.9504 65.3642 36.9173C65.8481 36.8841 66.2985 36.8509 66.7156 36.8177V39.6058C66.3486 39.6887 65.8981 39.7634 65.3642 39.8298C64.847 39.8962 64.2881 39.946 63.6875 39.9792C63.0869 40.0124 62.503 40.029 61.9358 40.029ZM63.4373 32.8098V32.4115C63.4373 31.8141 63.4039 31.3411 63.3372 30.9926C63.2871 30.6441 63.187 30.3868 63.0369 30.2209C62.9034 30.0383 62.7115 29.9222 62.4613 29.8724C62.211 29.8226 61.8941 29.7977 61.5103 29.7977C61.0766 29.7977 60.7262 29.8309 60.4593 29.8973C60.209 29.947 60.0172 30.0632 59.8837 30.2458C59.7502 30.4283 59.6585 30.6939 59.6084 31.0424C59.5584 31.3909 59.5333 31.8473 59.5333 32.4115H63.8627L63.4373 32.8098Z" fill="#141416"/>
<path d="M70.6856 39.8298V30.1711H68.3583V27.1341H70.6856V23.4498H74.7397V27.1341H77.5176V30.1711H74.7397V39.8298H70.6856Z" fill="#141416"/>
<path d="M81.7525 39.8298L77.9236 22.703H82.253L84.7305 34.9258H84.9307L87.7336 22.703H92.2381L95.091 34.9258H95.2912L97.5685 22.703H101.898L98.069 39.8298H92.6135L89.9859 29.026H89.8107L87.208 39.8298H81.7525Z" fill="#141416"/>
<path d="M108.179 40.029C107.045 40.029 106.102 39.9626 105.352 39.8298C104.601 39.697 104.009 39.4813 103.575 39.1826C103.141 38.8838 102.824 38.4855 102.624 37.9877C102.424 37.4898 102.29 36.8675 102.223 36.1207C102.173 35.3739 102.148 34.486 102.148 33.457C102.148 32.4281 102.173 31.5485 102.223 30.8183C102.29 30.0715 102.424 29.4492 102.624 28.9513C102.824 28.4534 103.141 28.0551 103.575 27.7564C104.009 27.4577 104.601 27.2502 105.352 27.1341C106.102 27.0013 107.045 26.9349 108.179 26.9349C109.331 26.9349 110.282 27.0013 111.032 27.1341C111.783 27.2502 112.375 27.4577 112.809 27.7564C113.243 28.0551 113.56 28.4534 113.76 28.9513C113.96 29.4492 114.085 30.0715 114.136 30.8183C114.202 31.5485 114.236 32.4281 114.236 33.457C114.236 34.486 114.202 35.3739 114.136 36.1207C114.085 36.8675 113.96 37.4898 113.76 37.9877C113.56 38.4855 113.243 38.8838 112.809 39.1826C112.375 39.4813 111.783 39.697 111.032 39.8298C110.282 39.9626 109.331 40.029 108.179 40.029ZM108.179 36.9919C108.68 36.9919 109.072 36.9587 109.356 36.8924C109.639 36.826 109.84 36.6766 109.956 36.4443C110.073 36.2119 110.14 35.8551 110.156 35.3739C110.19 34.8926 110.207 34.2536 110.207 33.457C110.207 32.6604 110.19 32.0298 110.156 31.5651C110.14 31.1004 110.073 30.7519 109.956 30.5196C109.84 30.2873 109.639 30.1379 109.356 30.0715C109.072 30.0051 108.68 29.9719 108.179 29.9719C107.679 29.9719 107.287 30.0051 107.003 30.0715C106.736 30.1379 106.544 30.2873 106.428 30.5196C106.311 30.7519 106.236 31.1004 106.202 31.5651C106.186 32.0298 106.177 32.6604 106.177 33.457C106.177 34.2536 106.186 34.8926 106.202 35.3739C106.236 35.8551 106.311 36.2119 106.428 36.4443C106.544 36.6766 106.736 36.826 107.003 36.8924C107.287 36.9587 107.679 36.9919 108.179 36.9919Z" fill="#141416"/>
<path d="M116.419 39.8298V27.1341H120.223L120.323 29.2998H120.548C120.782 28.6858 121.074 28.2045 121.424 27.856C121.791 27.5075 122.233 27.2668 122.75 27.1341C123.267 27.0013 123.868 26.9349 124.552 26.9349V30.5943C123.501 30.5943 122.675 30.727 122.075 30.9926C121.474 31.2581 121.049 31.7145 120.798 32.3617C120.548 32.9924 120.423 33.8802 120.423 35.0253V39.8298H116.419Z" fill="#141416"/>
<path d="M126.183 39.8298V21.3339H130.237V39.8298H126.183Z" fill="#141416"/>
<path d="M136.597 40.029C135.862 40.029 135.229 39.9294 134.695 39.7302C134.161 39.5311 133.727 39.1909 133.393 38.7096C133.06 38.2117 132.809 37.5396 132.643 36.6932C132.492 35.8468 132.417 34.7847 132.417 33.5068C132.417 32.2456 132.492 31.1917 132.643 30.3453C132.793 29.4824 133.035 28.8102 133.368 28.329C133.702 27.8311 134.127 27.4743 134.645 27.2585C135.178 27.0428 135.821 26.9349 136.572 26.9349C137.072 26.9349 137.539 26.9764 137.973 27.0594C138.423 27.1424 138.832 27.2917 139.199 27.5075C139.566 27.7232 139.883 28.0468 140.15 28.4783H140.35V21.3339H144.379V39.8298H140.551L140.45 38.3113H140.25C140 38.7926 139.675 39.1577 139.274 39.4066C138.891 39.639 138.465 39.7966 137.998 39.8796C137.548 39.9792 137.08 40.029 136.597 40.029ZM138.398 36.743C138.916 36.743 139.299 36.6849 139.55 36.5687C139.816 36.436 140.008 36.2036 140.125 35.8717C140.225 35.573 140.284 35.2328 140.3 34.8511C140.334 34.4528 140.35 33.9964 140.35 33.4819C140.35 32.9675 140.334 32.5194 140.3 32.1377C140.284 31.756 140.225 31.4324 140.125 31.1668C140.025 30.8017 139.842 30.5528 139.575 30.42C139.308 30.2873 138.916 30.2209 138.398 30.2209C137.948 30.2209 137.589 30.2541 137.322 30.3204C137.055 30.3868 136.855 30.5279 136.722 30.7436C136.605 30.9428 136.53 31.2581 136.496 31.6896C136.463 32.1211 136.446 32.7185 136.446 33.4819C136.446 34.2453 136.463 34.8511 136.496 35.2992C136.53 35.7307 136.605 36.0543 136.722 36.27C136.855 36.4692 137.055 36.6019 137.322 36.6683C137.589 36.7181 137.948 36.743 138.398 36.743Z" fill="#141416"/>
<path d="M154.113 40.029C152.812 40.029 151.728 39.946 150.86 39.78C149.992 39.5975 149.283 39.307 148.733 38.9087C148.199 38.5104 147.79 37.9794 147.507 37.3155C147.24 36.6517 147.056 35.8219 146.956 34.8262C146.856 33.8304 146.806 32.6439 146.806 31.2664C146.806 29.889 146.856 28.7024 146.956 27.7066C147.056 26.7109 147.24 25.8811 147.507 25.2173C147.79 24.5534 148.199 24.0224 148.733 23.6241C149.283 23.2258 149.992 22.9436 150.86 22.7777C151.728 22.5951 152.812 22.5039 154.113 22.5039C154.614 22.5039 155.131 22.5205 155.665 22.5536C156.199 22.5868 156.716 22.6366 157.216 22.703C157.717 22.7694 158.142 22.8524 158.493 22.9519V26.0636C157.976 26.0139 157.5 25.9724 157.066 25.9392C156.649 25.8894 156.282 25.8645 155.965 25.8645C155.648 25.8479 155.381 25.8396 155.164 25.8396C154.397 25.8396 153.763 25.8728 153.262 25.9392C152.779 25.989 152.395 26.1134 152.111 26.3126C151.828 26.5117 151.619 26.8105 151.486 27.2088C151.352 27.5905 151.26 28.1132 151.21 28.777C151.177 29.4243 151.16 30.2541 151.16 31.2664C151.16 32.2622 151.177 33.0919 151.21 33.7558C151.26 34.4196 151.352 34.9507 151.486 35.349C151.619 35.7473 151.828 36.046 152.111 36.2451C152.395 36.4277 152.779 36.5521 153.262 36.6185C153.763 36.6683 154.397 36.6932 155.164 36.6932C155.682 36.6932 156.266 36.6766 156.916 36.6434C157.567 36.5936 158.126 36.5355 158.593 36.4692V39.6555C158.226 39.7219 157.784 39.78 157.267 39.8298C156.749 39.8962 156.215 39.946 155.665 39.9792C155.131 40.0124 154.614 40.029 154.113 40.029Z" fill="#141416"/>
<path d="M164.632 40.029C163.781 40.029 163.097 39.9211 162.58 39.7053C162.063 39.4896 161.67 39.1743 161.404 38.7594C161.137 38.3445 160.961 37.83 160.878 37.216C160.795 36.6019 160.753 35.8883 160.753 35.0751V27.1341H164.757V33.8553C164.757 34.5358 164.774 35.0751 164.807 35.4734C164.857 35.8551 164.94 36.1373 165.057 36.3198C165.174 36.5024 165.349 36.6185 165.583 36.6683C165.816 36.7015 166.133 36.7181 166.534 36.7181C166.967 36.7181 167.31 36.6766 167.56 36.5936C167.827 36.4941 168.019 36.3364 168.135 36.1207C168.252 35.9049 168.327 35.6062 168.361 35.2245C168.411 34.8262 168.436 34.3366 168.436 33.7558V27.1341H172.465V39.8298H168.636L168.536 38.2864H168.311C168.077 38.7179 167.777 39.0664 167.41 39.3319C167.043 39.5809 166.625 39.7551 166.158 39.8547C165.691 39.9709 165.182 40.029 164.632 40.029Z" fill="#141416"/>
<path d="M175.038 44.7836V27.1341H178.842L178.942 28.6775H179.167C179.434 28.1962 179.751 27.8311 180.118 27.5822C180.502 27.3332 180.927 27.1673 181.394 27.0843C181.861 26.9847 182.329 26.9349 182.796 26.9349C183.546 26.9349 184.18 27.0345 184.698 27.2336C185.232 27.4328 185.665 27.7813 185.999 28.2792C186.349 28.7605 186.6 29.4243 186.75 30.2707C186.917 31.117 187 32.1792 187 33.457C187 34.7183 186.917 35.7721 186.75 36.6185C186.6 37.4649 186.358 38.137 186.024 38.6349C185.69 39.1328 185.257 39.4896 184.723 39.7053C184.205 39.9211 183.571 40.029 182.821 40.029C182.337 40.029 181.87 39.9875 181.419 39.9045C180.969 39.8215 180.56 39.6721 180.193 39.4564C179.843 39.2241 179.534 38.9004 179.267 38.4855H179.042V44.7836H175.038ZM180.994 36.743C181.444 36.743 181.803 36.7098 182.07 36.6434C182.337 36.577 182.529 36.4443 182.646 36.2451C182.779 36.0294 182.862 35.7058 182.896 35.2743C182.946 34.8428 182.971 34.2453 182.971 33.4819C182.971 32.7185 182.946 32.1211 182.896 31.6896C182.862 31.2415 182.779 30.9179 182.646 30.7187C182.529 30.503 182.337 30.3702 182.07 30.3204C181.803 30.2541 181.444 30.2209 180.994 30.2209C180.51 30.2209 180.135 30.2873 179.868 30.42C179.617 30.5362 179.426 30.7436 179.292 31.0424C179.192 31.3079 179.125 31.6481 179.092 32.063C179.059 32.4613 179.042 32.9343 179.042 33.4819C179.042 34.0462 179.059 34.5275 179.092 34.9258C179.125 35.3241 179.184 35.6394 179.267 35.8717C179.401 36.2036 179.601 36.436 179.868 36.5687C180.135 36.6849 180.51 36.743 180.994 36.743Z" fill="#141416"/>
<path fill-rule="evenodd" clip-rule="evenodd" d="M0 9.74999L12.0635 0V17.25H0V9.74999ZM0 27.75H12.0635V40.5H0V27.75ZM24.3256 46.0574C21.0735 49.2221 16.6627 51 12.0635 51L12.0635 40.7123C13.8588 40.7123 15.5806 40.0183 16.8501 38.7829C18.1196 37.5476 18.8328 35.8721 18.8328 34.125C18.8328 32.3779 18.1196 30.7024 16.8501 29.4671C15.5806 28.2317 13.8588 27.5377 12.0635 27.5377L12.0635 17.25C16.6627 17.25 21.0735 19.0279 24.3256 22.1926C27.5778 25.3573 29.4048 29.6495 29.4048 34.125C29.4048 38.6005 27.5778 42.8927 24.3256 46.0574Z" fill="url(#paint0_linear_245_2292)"/>
<defs>
<linearGradient id="paint0_linear_245_2292" x1="14.7024" y1="-10.2" x2="14.7024" y2="51" gradientUnits="userSpaceOnUse">
<stop stop-color="#FE5821"/>
<stop offset="1" stop-color="#FE9608"/>
</linearGradient>
</defs>
</svg>
