<svg width="32" height="33" viewBox="0 0 32 33" fill="none" xmlns="http://www.w3.org/2000/svg">
<path fill-rule="evenodd" clip-rule="evenodd" d="M16.029 0.601074C7.20993 0.601074 0.0585938 7.87301 0.0585938 16.8441C0.0585938 24.0208 4.63459 30.1095 10.9801 32.2573C11.7783 32.4077 12.0713 31.905 12.0713 31.4759C12.0713 31.0886 12.0565 29.8091 12.0496 28.4518C7.60663 29.4344 6.66911 26.5353 6.66911 26.5353C5.94263 24.6578 4.89588 24.1585 4.89588 24.1585C3.44689 23.1504 5.00511 23.1711 5.00511 23.1711C6.60881 23.2854 7.45324 24.845 7.45324 24.845C8.87763 27.3282 11.1893 26.6103 12.1006 26.1953C12.244 25.1457 12.6579 24.4286 13.1146 24.0232C9.56735 23.6125 5.83843 22.2197 5.83843 15.9957C5.83843 14.2223 6.4623 12.7733 7.48392 11.6358C7.3181 11.2264 6.77145 9.57459 7.63863 7.3372C7.63863 7.3372 8.97972 6.90064 12.0316 9.0022C13.3055 8.6423 14.6718 8.46181 16.029 8.45563C17.3862 8.46181 18.7535 8.6423 20.0298 9.0022C23.078 6.90064 24.4172 7.3372 24.4172 7.3372C25.2865 9.57459 24.7396 11.2264 24.5738 11.6358C25.5978 12.7733 26.2174 14.2223 26.2174 15.9957C26.2174 22.2345 22.4813 23.6082 18.9251 24.0103C19.4979 24.5144 20.0083 25.5029 20.0083 27.0184C20.0083 29.1915 19.9898 30.9407 19.9898 31.4759C19.9898 31.9082 20.2773 32.4147 21.0868 32.2552C27.4289 30.1049 31.9991 24.0184 31.9991 16.8441C31.9991 7.87301 24.8488 0.601074 16.029 0.601074Z" fill="#E6E8EC"/>
<path fill-rule="evenodd" clip-rule="evenodd" d="M6.10739 23.9226C6.07221 24.0036 5.94739 24.0275 5.83367 23.9721C5.71783 23.9191 5.65278 23.8091 5.69033 23.7282C5.72471 23.6451 5.8498 23.6222 5.96537 23.6773C6.08147 23.7306 6.14758 23.8417 6.10739 23.9226Z" fill="#E6E8EC"/>
<path fill-rule="evenodd" clip-rule="evenodd" d="M6.75426 24.6564C6.6781 24.7282 6.52921 24.6949 6.42818 24.5814C6.32372 24.4681 6.30415 24.3167 6.38137 24.2438C6.45992 24.172 6.60431 24.2056 6.70904 24.3189C6.8135 24.4334 6.83387 24.5838 6.75426 24.6564Z" fill="#E6E8EC"/>
<path fill-rule="evenodd" clip-rule="evenodd" d="M7.38395 25.5919C7.2861 25.6611 7.1261 25.5963 7.02719 25.4518C6.92934 25.3074 6.92934 25.1341 7.0293 25.0647C7.12848 24.9953 7.2861 25.0578 7.38633 25.2011C7.48392 25.3477 7.48392 25.5212 7.38395 25.5919Z" fill="#E6E8EC"/>
<path fill-rule="evenodd" clip-rule="evenodd" d="M8.24663 26.4957C8.15909 26.5939 7.97264 26.5675 7.83618 26.4336C7.69654 26.3026 7.65767 26.1167 7.74547 26.0186C7.83406 25.9201 8.02157 25.9478 8.15909 26.0807C8.29767 26.2114 8.33998 26.3986 8.24663 26.4957Z" fill="#E6E8EC"/>
<path fill-rule="evenodd" clip-rule="evenodd" d="M9.43671 27.0205C9.3981 27.1477 9.21853 27.2056 9.03763 27.1515C8.85701 27.0958 8.73879 26.9468 8.77529 26.8182C8.81284 26.6902 8.99321 26.63 9.17542 26.6878C9.35578 26.7432 9.47426 26.8911 9.43671 27.0205Z" fill="#E6E8EC"/>
<path fill-rule="evenodd" clip-rule="evenodd" d="M10.7437 27.1179C10.7482 27.2518 10.5948 27.3629 10.4049 27.3651C10.214 27.3697 10.0595 27.2613 10.0574 27.1295C10.0574 26.9942 10.2074 26.8841 10.3983 26.8809C10.5882 26.8771 10.7437 26.9847 10.7437 27.1179Z" fill="#E6E8EC"/>
<path fill-rule="evenodd" clip-rule="evenodd" d="M11.9599 26.9073C11.9827 27.038 11.8507 27.1722 11.6622 27.2077C11.4768 27.2424 11.3051 27.1617 11.2816 27.0321C11.2586 26.8981 11.3929 26.7639 11.5781 26.7292C11.7669 26.6959 11.9359 26.7744 11.9599 26.9073Z" fill="#E6E8EC"/>
</svg>
