<svg width="32" height="32" viewBox="0 0 32 32" fill="none" xmlns="http://www.w3.org/2000/svg">
<path d="M29.8395 5.17853L1.49387 16.177C-0.440765 16.9579 -0.42929 18.0434 1.14124 18.5274L8.21073 20.7472L10.9157 29.0901C11.2445 30.0032 11.0824 30.3653 12.0356 30.3653C12.7712 30.3653 13.0975 30.028 13.5072 29.6254C13.7677 29.3689 15.3145 27.856 17.0417 26.1666L24.3953 31.6324C25.7485 32.3834 26.7255 31.9943 27.0625 30.3681L31.8895 7.4848C32.3837 5.49155 31.1342 4.58743 29.8395 5.17853ZM9.32021 20.2372L25.2549 10.1237C26.0504 9.63837 26.7797 9.89929 26.1809 10.4341L12.5366 22.8184L12.0054 28.5187L9.32021 20.2372Z" fill="#E6E8EC"/>
</svg>
