<svg width="81" height="80" viewBox="0 0 81 80" fill="none" xmlns="http://www.w3.org/2000/svg">
<path d="M50.4998 75.8334H30.4998C12.3998 75.8334 4.6665 68.1001 4.6665 50.0001V30.0001C4.6665 11.9001 12.3998 4.16675 30.4998 4.16675H50.4998C68.5998 4.16675 76.3332 11.9001 76.3332 30.0001V50.0001C76.3332 68.1001 68.5998 75.8334 50.4998 75.8334ZM30.4998 9.16675C15.1332 9.16675 9.6665 14.6334 9.6665 30.0001V50.0001C9.6665 65.3667 15.1332 70.8334 30.4998 70.8334H50.4998C65.8665 70.8334 71.3332 65.3667 71.3332 50.0001V30.0001C71.3332 14.6334 65.8665 9.16675 50.4998 9.16675H30.4998Z" fill="#B1E846"/>
<path d="M35.7668 51.9334C35.1001 51.9334 34.4668 51.6667 34.0001 51.2001L24.5668 41.7667C23.6001 40.8001 23.6001 39.2001 24.5668 38.2334C25.5335 37.2667 27.1335 37.2667 28.1001 38.2334L35.7668 45.9001L52.9001 28.7667C53.8668 27.8001 55.4668 27.8001 56.4335 28.7667C57.4001 29.7334 57.4001 31.3334 56.4335 32.3001L37.5335 51.2001C37.0668 51.6667 36.4335 51.9334 35.7668 51.9334Z" fill="#B1E846"/>
</svg>
