<svg width="32" height="33" viewBox="0 0 32 33" fill="none" xmlns="http://www.w3.org/2000/svg">
<path fill-rule="evenodd" clip-rule="evenodd" d="M0 16.481C0 7.6444 7.16344 0.480957 16 0.480957C24.8366 0.480957 32 7.6444 32 16.481C32 25.3175 24.8366 32.481 16 32.481C7.16344 32.481 0 25.3175 0 16.481ZM15.5208 13.486L15.5544 14.0396L14.9948 13.9718C12.9579 13.7119 11.1784 12.8306 9.66756 11.3505L8.92891 10.6161L8.73865 11.1584C8.33575 12.3674 8.59316 13.6441 9.43253 14.5028C9.8802 14.9774 9.77948 15.0452 9.00725 14.7627C8.73865 14.6723 8.50363 14.6045 8.48124 14.6384C8.4029 14.7175 8.6715 15.7457 8.88414 16.1524C9.17513 16.7174 9.76828 17.271 10.4174 17.5987L10.9658 17.8586L10.3167 17.8699C9.68994 17.8699 9.66756 17.8811 9.73471 18.1184C9.95854 18.8528 10.8427 19.6324 11.8276 19.9714L12.5214 20.2087L11.9171 20.5702C11.0218 21.09 9.96973 21.3837 8.91772 21.4063C8.41409 21.4176 8 21.4628 8 21.4967C8 21.6097 9.36538 22.2424 10.16 22.491C12.5438 23.2254 15.3753 22.9091 17.5017 21.6549C19.0126 20.7623 20.5235 18.9884 21.2286 17.271C21.6091 16.3558 21.9896 14.6836 21.9896 13.8814C21.9896 13.3617 22.0232 13.2939 22.6499 12.6725C23.0192 12.3109 23.3662 11.9154 23.4333 11.8025C23.5452 11.5878 23.534 11.5878 22.9633 11.7799C22.012 12.1188 21.8777 12.0736 22.3477 11.5652C22.6947 11.2036 23.1088 10.5483 23.1088 10.3562C23.1088 10.3223 22.9409 10.3788 22.7506 10.4805C22.5492 10.5935 22.1015 10.763 21.7658 10.8647L21.1614 11.0567L20.613 10.6839C20.3108 10.4805 19.8856 10.2545 19.6617 10.1867C19.0909 10.0286 18.218 10.0512 17.7032 10.2319C16.3042 10.7404 15.4201 12.051 15.5208 13.486Z" fill="#E6E8EC"/>
</svg>
