<svg width="120" height="41" viewBox="0 0 120 41" fill="none" xmlns="http://www.w3.org/2000/svg">
<path d="M53.1138 33.4344L63.7161 7.93359H69.864L80.356 33.4344H74.5762L71.9624 26.7313H61.3232L58.6727 33.4344H53.1138ZM62.9799 22.5055H70.3426L66.6612 13.1066L62.9799 22.5055Z" fill="#FCFCFD"/>
<path d="M85.4886 33.4344V7.93359H90.8266V33.4344H85.4886Z" fill="#FCFCFD"/>
<path d="M98.464 33.4344V7.93359H111.386C113.079 7.93359 114.564 8.2736 115.84 8.95363C117.141 9.63365 118.159 10.5808 118.896 11.7951C119.632 12.9852 120 14.3695 120 15.9481C120 17.4539 119.632 18.8018 118.896 19.9918C118.159 21.1819 117.141 22.1169 115.84 22.7969C114.539 23.4769 113.055 23.817 111.386 23.817H103.802V33.4344H98.464ZM103.802 19.4454H110.797C111.95 19.4454 112.87 19.1297 113.558 18.4982C114.269 17.8668 114.625 17.0289 114.625 15.9846C114.625 14.916 114.269 14.0659 113.558 13.4345C112.87 12.803 111.95 12.4873 110.797 12.4873H103.802V19.4454Z" fill="#FCFCFD"/>
<path fill-rule="evenodd" clip-rule="evenodd" d="M16.993 0L0 41H8.90954L21.8317 27.566L34.3991 41H43.6627L26.8466 0H16.993ZM21.8215 31.9827L13.2051 40.9966H17.5583L21.8509 36.5651L26.1183 40.9966H30.438L21.8215 31.9827ZM30.0653 17.8326C25.6386 17.8326 22.0502 14.2816 22.0477 9.90107C22.075 9.89861 22.1022 9.89861 22.132 9.90107C22.1502 9.89943 22.1684 9.89997 22.1866 9.90052C22.1956 9.90079 22.2047 9.90107 22.2138 9.90107C26.5636 9.98941 30.0653 13.5061 30.0653 17.8326ZM22.0477 9.90107C22.0204 9.89861 21.9931 9.89861 21.9634 9.90107C21.9452 9.89943 21.927 9.89997 21.9088 9.90052C21.8997 9.90079 21.8906 9.90107 21.8815 9.90107C17.5317 9.98941 14.03 13.5061 14.03 17.8326C18.4567 17.8326 22.0452 14.2816 22.0477 9.90107ZM22.0479 25.7664C26.4744 25.7662 30.0627 22.2153 30.0652 17.8349C30.0379 17.8324 30.0106 17.8324 29.9809 17.8349C29.9627 17.8332 29.9445 17.8338 29.9263 17.8343C29.9172 17.8346 29.9081 17.8349 29.899 17.8349C25.567 17.9229 22.0761 21.4113 22.0477 25.7135C22.0193 21.4113 18.5285 17.9229 14.1964 17.8349C14.1873 17.8349 14.1782 17.8346 14.1691 17.8343C14.151 17.8338 14.1328 17.8332 14.1146 17.8349C14.0848 17.8324 14.0576 17.8324 14.0303 17.8349C14.0328 22.2153 17.621 25.7662 22.0476 25.7664M22.0479 25.7664C22.0479 25.7488 22.0478 25.7311 22.0477 25.7135C22.0476 25.7311 22.0476 25.7488 22.0476 25.7664" fill="url(#paint0_linear_164_10100)"/>
<defs>
<linearGradient id="paint0_linear_164_10100" x1="21.8314" y1="40.9999" x2="21.8314" y2="0" gradientUnits="userSpaceOnUse">
<stop stop-color="#B1E846"/>
<stop offset="1" stop-color="#49CB71"/>
</linearGradient>
</defs>
</svg>
