<svg width="144" height="42" viewBox="0 0 144 42" fill="none" xmlns="http://www.w3.org/2000/svg">
<path d="M54.5024 25.7145L65.0821 0H71.2169L81.6863 25.7145H75.9189L73.3108 18.9553H62.6943L60.0494 25.7145H54.5024ZM64.3474 14.694H71.6944L68.0209 5.21637L64.3474 14.694Z" fill="#F2FFF6"/>
<path d="M86.808 25.7145V0H92.1346V25.7145H86.808Z" fill="#F2FFF6"/>
<path d="M99.7556 25.7145V0H112.65C114.339 0 115.821 0.34286 117.095 1.02858C118.393 1.7143 119.409 2.66941 120.144 3.89391C120.878 5.09392 121.246 6.48985 121.246 8.0817C121.246 9.60008 120.878 10.9593 120.144 12.1593C119.409 13.3593 118.393 14.3022 117.095 14.9879C115.797 15.6736 114.315 16.0165 112.65 16.0165H105.082V25.7145H99.7556ZM105.082 11.6083H112.062C113.213 11.6083 114.131 11.2899 114.817 10.6531C115.527 10.0164 115.882 9.1715 115.882 8.11843C115.882 7.04087 115.527 6.18372 114.817 5.54698C114.131 4.91024 113.213 4.59187 112.062 4.59187H105.082V11.6083Z" fill="#F2FFF6"/>
<path d="M54.6895 40.962L57.5843 33.9744H58.5127L61.3876 40.962H60.5491L59.6706 38.7659H56.3765L55.488 40.962H54.6895ZM56.646 38.1071H59.4011L58.0236 34.6831L56.646 38.1071Z" fill="#D7D7D7"/>
<path d="M63.8239 41.0618C63.4446 41.0618 63.1085 40.982 62.8157 40.8223C62.5229 40.6559 62.2933 40.4296 62.1269 40.1435C61.9672 39.8507 61.8873 39.5113 61.8873 39.1253V35.9609H62.616V38.9755C62.616 39.4214 62.7425 39.7741 62.9954 40.0337C63.2483 40.2865 63.5877 40.413 64.0136 40.413C64.313 40.413 64.5792 40.3464 64.8122 40.2133C65.0517 40.0736 65.2447 39.8806 65.3911 39.6344V35.9609H66.1298V40.962H65.3911V40.383C64.9985 40.8356 64.4761 41.0618 63.8239 41.0618Z" fill="#D7D7D7"/>
<path d="M69.3524 41.0618C68.9198 41.0618 68.5871 40.9587 68.3542 40.7524C68.1213 40.5461 68.0048 40.2466 68.0048 39.854V36.5898H66.9267V35.9609H68.0048V34.6931L68.7335 34.5035V35.9609H70.2408V36.5898H68.7335V39.6643C68.7335 39.9305 68.7934 40.1235 68.9132 40.2433C69.033 40.3564 69.2293 40.413 69.5021 40.413C69.6419 40.413 69.765 40.403 69.8715 40.383C69.9846 40.3631 70.1044 40.3298 70.2309 40.2832V40.9321C70.1044 40.9787 69.9613 41.0119 69.8016 41.0319C69.6486 41.0519 69.4988 41.0618 69.3524 41.0618Z" fill="#D7D7D7"/>
<path d="M73.2602 41.0618C72.7877 41.0618 72.3551 40.9487 71.9625 40.7224C71.5765 40.4895 71.2704 40.1767 71.0441 39.7841C70.8178 39.3915 70.7047 38.9522 70.7047 38.4664C70.7047 37.9806 70.8178 37.5414 71.0441 37.1488C71.2704 36.7561 71.5765 36.4467 71.9625 36.2204C72.3551 35.9875 72.7877 35.871 73.2602 35.871C73.7393 35.871 74.1719 35.9875 74.5579 36.2204C74.9439 36.4467 75.25 36.7561 75.4763 37.1488C75.7025 37.5414 75.8157 37.9806 75.8157 38.4664C75.8157 38.9522 75.7025 39.3915 75.4763 39.7841C75.25 40.1767 74.9439 40.4895 74.5579 40.7224C74.1719 40.9487 73.7393 41.0618 73.2602 41.0618ZM73.2602 40.403C73.5996 40.403 73.9057 40.3165 74.1786 40.1435C74.4581 39.9704 74.6777 39.7375 74.8374 39.4447C75.0038 39.1519 75.0869 38.8258 75.0869 38.4664C75.0869 38.1004 75.0038 37.7743 74.8374 37.4882C74.6777 37.1954 74.4581 36.9624 74.1786 36.7894C73.9057 36.6164 73.5996 36.5299 73.2602 36.5299C72.9208 36.5299 72.6113 36.6164 72.3318 36.7894C72.059 36.9624 71.8394 37.1954 71.673 37.4882C71.5133 37.7743 71.4334 38.1004 71.4334 38.4664C71.4334 38.8258 71.5133 39.1519 71.673 39.4447C71.8394 39.7375 72.059 39.9704 72.3318 40.1435C72.6113 40.3165 72.9208 40.403 73.2602 40.403Z" fill="#D7D7D7"/>
<path d="M79.1262 40.962V33.9744H79.8948V40.962H79.1262Z" fill="#D7D7D7"/>
<path d="M81.2968 40.962V35.9609H82.0355V36.5498C82.4282 36.0906 82.9539 35.861 83.6127 35.861C83.992 35.861 84.3248 35.9442 84.611 36.1106C84.9038 36.2703 85.13 36.4966 85.2897 36.7894C85.4561 37.0756 85.5393 37.4116 85.5393 37.7976V40.962H84.8106V37.9474C84.8106 37.5015 84.6842 37.1521 84.4313 36.8992C84.185 36.6397 83.8456 36.5099 83.4131 36.5099C83.1136 36.5099 82.8474 36.5764 82.6145 36.7095C82.3816 36.8426 82.1886 37.0323 82.0355 37.2785V40.962H81.2968Z" fill="#D7D7D7"/>
<path d="M88.1189 40.962L85.9527 35.9609H86.7713L88.4782 40.0037L90.1852 35.9609H90.9738L88.8176 40.962H88.1189Z" fill="#D7D7D7"/>
<path d="M93.8492 41.0519C93.3701 41.0519 92.9342 40.9387 92.5415 40.7125C92.1555 40.4795 91.8461 40.1668 91.6132 39.7741C91.3869 39.3815 91.2738 38.9423 91.2738 38.4565C91.2738 37.9773 91.3836 37.5447 91.6032 37.1588C91.8228 36.7661 92.1189 36.4567 92.4916 36.2304C92.8643 35.9975 93.2802 35.881 93.7394 35.881C94.1853 35.881 94.5846 35.9975 94.9373 36.2304C95.2966 36.4567 95.5795 36.7661 95.7858 37.1588C95.9987 37.5447 96.1052 37.9773 96.1052 38.4565V38.686H92.0025C92.0424 39.0121 92.1456 39.305 92.3119 39.5645C92.485 39.824 92.7079 40.0303 92.9808 40.1834C93.2536 40.3298 93.5531 40.403 93.8792 40.403C94.1387 40.403 94.3916 40.3631 94.6378 40.2832C94.884 40.2034 95.0903 40.0902 95.2567 39.9438L95.7159 40.433C95.4364 40.6393 95.1436 40.7956 94.8375 40.9021C94.538 41.002 94.2086 41.0519 93.8492 41.0519ZM92.0224 38.0971H95.3665C95.3266 37.7976 95.2268 37.5314 95.0671 37.2985C94.914 37.0589 94.721 36.8726 94.4881 36.7395C94.2552 36.5997 93.9989 36.5299 93.7194 36.5299C93.4333 36.5299 93.1704 36.5964 92.9308 36.7295C92.6913 36.8626 92.4916 37.0489 92.3319 37.2885C92.1722 37.5214 92.069 37.791 92.0224 38.0971Z" fill="#D7D7D7"/>
<path d="M98.7838 41.0618C98.3712 41.0618 97.9819 40.9953 97.6159 40.8622C97.2565 40.7224 96.9438 40.5295 96.6776 40.2832L97.1268 39.8041C97.3597 40.017 97.6159 40.1834 97.8954 40.3032C98.1749 40.4163 98.4611 40.4729 98.7539 40.4729C99.1532 40.4729 99.4793 40.3897 99.7322 40.2233C99.985 40.057 100.111 39.8407 100.111 39.5745C100.111 39.3549 100.035 39.1852 99.8819 39.0654C99.7355 38.9389 99.5026 38.8524 99.1831 38.8058L98.3147 38.686C97.8156 38.6128 97.4429 38.4631 97.1966 38.2368C96.9571 38.0106 96.8373 37.7045 96.8373 37.3185C96.8373 37.039 96.9171 36.7894 97.0769 36.5698C97.2366 36.3502 97.4562 36.1772 97.7357 36.0507C98.0219 35.9243 98.3479 35.861 98.714 35.861C99.08 35.861 99.4227 35.9143 99.7421 36.0208C100.062 36.1272 100.374 36.2936 100.68 36.5199L100.291 37.019C100.012 36.826 99.7388 36.6863 99.4726 36.5997C99.2131 36.5066 98.9469 36.46 98.674 36.46C98.328 36.46 98.0485 36.5365 97.8355 36.6896C97.6226 36.8426 97.5161 37.0423 97.5161 37.2885C97.5161 37.5148 97.5893 37.6878 97.7357 37.8076C97.8821 37.9207 98.1183 38.0006 98.4444 38.0472L99.3129 38.167C99.812 38.2335 100.185 38.3799 100.431 38.6062C100.684 38.8325 100.81 39.1419 100.81 39.5345C100.81 39.8207 100.72 40.0802 100.541 40.3132C100.361 40.5461 100.118 40.7291 99.812 40.8622C99.5126 40.9953 99.1698 41.0618 98.7838 41.0618Z" fill="#D7D7D7"/>
<path d="M103.511 41.0618C103.078 41.0618 102.745 40.9587 102.512 40.7524C102.28 40.5461 102.163 40.2466 102.163 39.854V36.5898H101.085V35.9609H102.163V34.6931L102.892 34.5035V35.9609H104.399V36.5898H102.892V39.6643C102.892 39.9305 102.952 40.1235 103.071 40.2433C103.191 40.3564 103.388 40.413 103.66 40.413C103.8 40.413 103.923 40.403 104.03 40.383C104.143 40.3631 104.263 40.3298 104.389 40.2832V40.9321C104.263 40.9787 104.12 41.0119 103.96 41.0319C103.807 41.0519 103.657 41.0618 103.511 41.0618Z" fill="#D7D7D7"/>
<path d="M107.474 40.962V33.9744H110.509C110.968 33.9744 111.364 34.0576 111.697 34.2239C112.036 34.3903 112.299 34.6266 112.486 34.9327C112.672 35.2322 112.765 35.5849 112.765 35.9908C112.765 36.3968 112.672 36.7528 112.486 37.0589C112.299 37.3584 112.036 37.5946 111.697 37.7677C111.358 37.934 110.962 38.0172 110.509 38.0172H108.243V40.962H107.474ZM108.243 37.3484H110.449C110.922 37.3484 111.298 37.2286 111.577 36.9891C111.857 36.7428 111.996 36.4134 111.996 36.0008C111.996 35.5882 111.857 35.2621 111.577 35.0225C111.298 34.783 110.922 34.6632 110.449 34.6632H108.243V37.3484Z" fill="#D7D7D7"/>
<path d="M113.749 40.962V35.9609H114.488V36.6696C114.641 36.4101 114.834 36.2104 115.067 36.0707C115.306 35.9243 115.579 35.8511 115.885 35.8511C116.058 35.8511 116.215 35.8744 116.355 35.9209V36.5997C116.268 36.5665 116.182 36.5432 116.095 36.5299C116.008 36.5166 115.922 36.5099 115.835 36.5099C115.529 36.5099 115.26 36.5997 115.027 36.7794C114.801 36.9525 114.621 37.2053 114.488 37.5381V40.962H113.749Z" fill="#D7D7D7"/>
<path d="M119.175 41.0618C118.703 41.0618 118.27 40.9487 117.877 40.7224C117.491 40.4895 117.185 40.1767 116.959 39.7841C116.733 39.3915 116.62 38.9522 116.62 38.4664C116.62 37.9806 116.733 37.5414 116.959 37.1488C117.185 36.7561 117.491 36.4467 117.877 36.2204C118.27 35.9875 118.703 35.871 119.175 35.871C119.654 35.871 120.087 35.9875 120.473 36.2204C120.859 36.4467 121.165 36.7561 121.391 37.1488C121.617 37.5414 121.73 37.9806 121.73 38.4664C121.73 38.9522 121.617 39.3915 121.391 39.7841C121.165 40.1767 120.859 40.4895 120.473 40.7224C120.087 40.9487 119.654 41.0618 119.175 41.0618ZM119.175 40.403C119.514 40.403 119.821 40.3165 120.093 40.1435C120.373 39.9704 120.593 39.7375 120.752 39.4447C120.919 39.1519 121.002 38.8258 121.002 38.4664C121.002 38.1004 120.919 37.7743 120.752 37.4882C120.593 37.1954 120.373 36.9624 120.093 36.7894C119.821 36.6164 119.514 36.5299 119.175 36.5299C118.836 36.5299 118.526 36.6164 118.247 36.7894C117.974 36.9624 117.754 37.1954 117.588 37.4882C117.428 37.7743 117.348 38.1004 117.348 38.4664C117.348 38.8258 117.428 39.1519 117.588 39.4447C117.754 39.7375 117.974 39.9704 118.247 40.1435C118.526 40.3165 118.836 40.403 119.175 40.403Z" fill="#D7D7D7"/>
<path d="M124.372 41.0618C123.94 41.0618 123.607 40.9587 123.374 40.7524C123.141 40.5461 123.025 40.2466 123.025 39.854V36.5898H121.947V35.9609H123.025V34.6931L123.753 34.5035V35.9609H125.261V36.5898H123.753V39.6643C123.753 39.9305 123.813 40.1235 123.933 40.2433C124.053 40.3564 124.249 40.413 124.522 40.413C124.662 40.413 124.785 40.403 124.891 40.383C125.004 40.3631 125.124 40.3298 125.251 40.2832V40.9321C125.124 40.9787 124.981 41.0119 124.821 41.0319C124.668 41.0519 124.519 41.0618 124.372 41.0618Z" fill="#D7D7D7"/>
<path d="M128.28 41.0618C127.807 41.0618 127.375 40.9487 126.982 40.7224C126.596 40.4895 126.29 40.1767 126.064 39.7841C125.838 39.3915 125.725 38.9522 125.725 38.4664C125.725 37.9806 125.838 37.5414 126.064 37.1488C126.29 36.7561 126.596 36.4467 126.982 36.2204C127.375 35.9875 127.807 35.871 128.28 35.871C128.759 35.871 129.192 35.9875 129.578 36.2204C129.964 36.4467 130.27 36.7561 130.496 37.1488C130.722 37.5414 130.835 37.9806 130.835 38.4664C130.835 38.9522 130.722 39.3915 130.496 39.7841C130.27 40.1767 129.964 40.4895 129.578 40.7224C129.192 40.9487 128.759 41.0618 128.28 41.0618ZM128.28 40.403C128.619 40.403 128.926 40.3165 129.198 40.1435C129.478 39.9704 129.697 39.7375 129.857 39.4447C130.024 39.1519 130.107 38.8258 130.107 38.4664C130.107 38.1004 130.024 37.7743 129.857 37.4882C129.697 37.1954 129.478 36.9624 129.198 36.7894C128.926 36.6164 128.619 36.5299 128.28 36.5299C127.941 36.5299 127.631 36.6164 127.352 36.7894C127.079 36.9624 126.859 37.1954 126.693 37.4882C126.533 37.7743 126.453 38.1004 126.453 38.4664C126.453 38.8258 126.533 39.1519 126.693 39.4447C126.859 39.7375 127.079 39.9704 127.352 40.1435C127.631 40.3165 127.941 40.403 128.28 40.403Z" fill="#D7D7D7"/>
<path d="M134.178 41.0519C133.705 41.0519 133.276 40.9387 132.89 40.7125C132.504 40.4795 132.198 40.1668 131.971 39.7741C131.745 39.3815 131.632 38.9423 131.632 38.4565C131.632 37.9706 131.745 37.5348 131.971 37.1488C132.198 36.7561 132.504 36.4434 132.89 36.2104C133.276 35.9775 133.705 35.861 134.178 35.861C134.544 35.861 134.896 35.9309 135.236 36.0707C135.575 36.2038 135.875 36.3968 136.134 36.6497L135.665 37.1887C135.465 36.9757 135.236 36.816 134.976 36.7095C134.723 36.5964 134.46 36.5398 134.188 36.5398C133.848 36.5398 133.539 36.6264 133.259 36.7994C132.986 36.9658 132.767 37.1954 132.6 37.4882C132.441 37.7743 132.361 38.0971 132.361 38.4565C132.361 38.8158 132.441 39.1419 132.6 39.4347C132.767 39.7275 132.99 39.9605 133.269 40.1335C133.549 40.2999 133.858 40.383 134.197 40.383C134.47 40.383 134.727 40.3298 134.966 40.2233C135.212 40.1168 135.442 39.9605 135.655 39.7542L136.114 40.2533C135.848 40.5062 135.548 40.7025 135.216 40.8422C134.883 40.982 134.537 41.0519 134.178 41.0519Z" fill="#D7D7D7"/>
<path d="M139.159 41.0618C138.687 41.0618 138.254 40.9487 137.861 40.7224C137.475 40.4895 137.169 40.1767 136.943 39.7841C136.717 39.3915 136.604 38.9522 136.604 38.4664C136.604 37.9806 136.717 37.5414 136.943 37.1488C137.169 36.7561 137.475 36.4467 137.861 36.2204C138.254 35.9875 138.687 35.871 139.159 35.871C139.638 35.871 140.071 35.9875 140.457 36.2204C140.843 36.4467 141.149 36.7561 141.375 37.1488C141.602 37.5414 141.715 37.9806 141.715 38.4664C141.715 38.9522 141.602 39.3915 141.375 39.7841C141.149 40.1767 140.843 40.4895 140.457 40.7224C140.071 40.9487 139.638 41.0618 139.159 41.0618ZM139.159 40.403C139.499 40.403 139.805 40.3165 140.078 40.1435C140.357 39.9704 140.577 39.7375 140.736 39.4447C140.903 39.1519 140.986 38.8258 140.986 38.4664C140.986 38.1004 140.903 37.7743 140.736 37.4882C140.577 37.1954 140.357 36.9624 140.078 36.7894C139.805 36.6164 139.499 36.5299 139.159 36.5299C138.82 36.5299 138.51 36.6164 138.231 36.7894C137.958 36.9624 137.738 37.1954 137.572 37.4882C137.412 37.7743 137.332 38.1004 137.332 38.4664C137.332 38.8258 137.412 39.1519 137.572 39.4447C137.738 39.7375 137.958 39.9704 138.231 40.1435C138.51 40.3165 138.82 40.403 139.159 40.403Z" fill="#D7D7D7"/>
<path d="M142.741 40.962V33.9744L143.479 33.8047V40.962H142.741Z" fill="#D7D7D7"/>
<path fill-rule="evenodd" clip-rule="evenodd" d="M16.9567 0.0178223L0 41.3614H8.89047L21.785 27.8148L34.3255 41.3614H43.5692L26.7892 0.0178223H16.9567ZM21.7747 32.2685L13.1767 41.3579H17.5206L21.804 36.8893L26.0622 41.3579H30.3727L21.7747 32.2685ZM30.0009 17.9999C25.5837 17.9999 22.0029 14.4191 22.0005 10.0019C22.0277 9.99938 22.0549 9.99938 22.0846 10.0019C22.1028 10.0002 22.1209 10.0008 22.1391 10.0013L22.1545 10.0017L22.1663 10.0019C26.5068 10.0909 30.0009 13.6371 30.0009 17.9999ZM22.0005 10.0019C21.9733 9.99938 21.946 9.99938 21.9163 10.0019C21.8982 10.0002 21.88 10.0008 21.8619 10.0013C21.8528 10.0016 21.8437 10.0019 21.8347 10.0019C17.4942 10.0909 14 13.6371 14 17.9999C18.4172 17.9999 21.998 14.4191 22.0005 10.0019ZM22.0008 26C26.4177 25.9996 29.9981 22.419 30.0006 18.002C29.9734 17.9995 29.9462 17.9995 29.9165 18.002C29.8983 18.0004 29.8802 18.0009 29.862 18.0015C29.859 18.0015 29.8559 18.0016 29.8529 18.0017C29.8469 18.0019 29.8408 18.002 29.8348 18.002C25.5185 18.0906 22.0391 21.5978 22.0005 25.9271C21.9618 21.5978 18.4824 18.0906 14.1661 18.002C14.1571 18.002 14.148 18.0017 14.1389 18.0015C14.1208 18.0009 14.1026 18.0004 14.0845 18.002C14.0548 17.9995 14.0275 17.9995 14.0003 18.002C14.0028 22.419 17.5832 25.9996 22.0001 26M22.0008 26C22.0008 25.9757 22.0007 25.9514 22.0005 25.9271C22.0003 25.9514 22.0001 25.9757 22.0001 26" fill="url(#paint0_linear_43_1271)"/>
<defs>
<linearGradient id="paint0_linear_43_1271" x1="21.7847" y1="41.3613" x2="21.7847" y2="0.0178223" gradientUnits="userSpaceOnUse">
<stop stop-color="#B1E846"/>
<stop offset="1" stop-color="#49CB71"/>
</linearGradient>
</defs>
</svg>
